<?xml version="1.0" encoding="utf-8"?>
<!-- Generator: Adobe Illustrator 27.7.0, SVG Export Plug-In . SVG Version: 6.00 Build 0)  -->
<svg version="1.1" id="Shark" xmlns="http://www.w3.org/2000/svg" xmlns:xlink="http://www.w3.org/1999/xlink" x="0px" y="0px"
	 viewBox="0 0 3017.4 2695" style="enable-background:new 0 0 3017.4 2695;" xml:space="preserve">
<style type="text/css">
	.st0{fill:#F19E39;}
</style>
<g id="group">
	<path d="M2958.1,2574.9c-133.6-239.4-452.4-610.2-452.4-610.2c-46.4-54.2-114.4-134.9-195-235.5c17.4-38.1,40.2-93.8,59.7-163.1
		c34.7-123.8,41.1-233.1,39.5-393.1c-1.3-137-10.6-321.9-43.6-543.2c3.3-19.6,5.4-41.6,5.1-65.6c-1.3-89.5-36.1-158.8-60.8-198.3
		c-0.6-1.6-1.3-3.3-1.9-4.9c-15.3-53-44.7-132.2-103.9-214.2c-53.3-73.8-88.3-122.3-146.4-134.8c-9.5-2-19-3-28.5-2.9
		c-78.5,0.7-156.5,71.3-253.6,159.1c-77.3,69.9-131,136.2-163.4,179.8c-16.2,12.8-36.9,32.4-55.2,60.4c-32,49-39.3,97.4-41.2,123.1
		c-12.6,46.7-34.3,117.2-70.9,198.8c-19.9,44.4-38.8,80.1-56.9,111.3c-7.9,12.7-15.8,25.7-23.5,39.1c-19.4,33.2-66.4,109-77.8,129.6
		c-34.6,62.3-74.6,192.1-95.3,361.5c-2.7,27.4-11.4,69.4-41.3,109.4c-1.6,2.1-6.8,8.9-14.2,17c-40.5,43.9-87,60.1-107.3,65.8
		c-9.6,0-25-1.2-41.7-8.1c-26.4-11-36.1-28.1-45-28c-0.6,0-1.2,0.1-1.8,0.2c-7.7,2.1-15.3,18.2-11.2,86.8
		c-41.5,15.2-89.3,29.8-142.8,41.5c-73.7,16-140.8,22.4-197.9,24.1c-9.1,0.3-17.6-4.4-22.3-12.1c-41.8-68.8-94.9-144.6-162.4-221.5
		c-128.2-146-263.9-245.8-375.2-312.7c-13.5-8.1-29.2,6.4-22.1,20.5c26.5,52.7,52.6,109.2,77.5,169.5
		c54.9,132.8,93.7,258.4,121.3,371.9c9.7,40,10.7,81.6,2.9,122c-7.9,41.2-20,86.8-38.3,135c-45.6,120.2-111.7,208.3-165.2,266.5
		c-8.2,9,0.5,23.1,12.2,19.7c50.3-14.4,106.1-35.3,164.1-65.6c193.3-101.2,303.8-252.1,358.6-342.9c5.5-9.1,15-15,25.5-16
		c16.1-1.4,33-2.3,50.5-2.4c1.4,0,2.9,0,4.3,0c101.7-0.2,187.2,23.6,250,48.6c1.9,10.2,3.5,25.4,0.4,43
		c-5.1,28.7-19.4,44.7-14.4,49.5c0.8,0.8,2,1.1,3.4,1.1c8-0.1,24.6-10.9,35.9-18.4c21.2-13.9,37.3-27.9,48.3-38.5
		c14.4,2.2,28.7,4.4,43.1,6.7c-31.6,37.9-63.5,75.5-95.6,113c-167.1,194.9-340.9,384.1-521.3,567.6c-7.3,7.4-13.5,15.8-18.3,25
		c-4.1,7.9-6.6,15.4-3.6,18.6c1.1,1.2,2.8,1.7,5,1.7c9.2-0.1,26-9.4,33-13.3c225-124.7,665.1-538.9,665.1-538.9
		c19.4-18.2,50.2-47.1,89.6-82.7c0.4,39-8,67.4-17.8,87.9c-8.6,18-18.4,30.5-13.2,37.6c10.1,14,70.7-1.1,106.1-40.4
		c24.9-27.7,30.7-60,32.4-75.6c19.4,9.7,46.2,26.8,66.1,56.4c29.9,44.5,21.1,82.7,40.3,88.5c24.4,7.4,66.8-45.8,85.5-95.8
		c5.7-15.3,9.2-30.1,11.1-44c27.4-1.9,56.8-5.3,89.9-10.3c71.6-10.8,170.8-31.3,287-73.7c14.1,0.7,29,1.1,44.6,0.9
		c22.5-0.2,46.4-1.4,71.7-4.1c78.3-8.2,143.8-27.6,193.5-46.8c70.7,58.3,142,119.7,213.9,184.3c205.4,184.7,386.2,370.3,545,550.1
		c11.5,11.2,76.4,73.9,97.9,73.7c1.7,0,3.2-0.4,4.3-1.3C3010.6,2673.4,2982.5,2618.7,2958.1,2574.9z M2306.7,1124.3
		c-1.4-24.9-4.2-41.5-15.2-47.1c-11.6-5.8-26.3,3.5-30.3-2.6c-2.8-4.2,2.4-11.4,7.6-21.2c5.2-9.9,11.3-24.3,15.1-43.8
		c-37.4,19.6-48.5,20.2-51.3,16.7c-2.8-3.6,2.9-10.9,7.5-25.4c5.2-16.7,5.4-31.6,4.7-42c-16,14.9-35.5,31.5-40.8,27.5
		c-3.3-2.6,0.7-12.3,4.7-25.4c4.7-15.1,10.2-37.3,12.9-66c-18,19.5-39.7,40.7-47,36c-3.5-2.2-2.3-9.2-0.9-22.6
		c1.5-14.1,3.2-34.3,4-59.5c-0.5-0.4-1-0.8-1.5-1.2c-0.5-0.4-1-0.8-1.5-1.2c-24.9,41.5-36.8,53.1-41.9,51c-4.1-1.6-3-11.3-3.7-24.6
		c-0.9-16.6-4.4-38.6-15.3-64.4c-31.2,61.2-44.3,73.6-50.1,71.7c-4.4-1.5-3.9-10.8-7.4-26.4c-5.3-23.7-15.2-41.9-23.6-54.4
		c-6.6,11.2-15.9,28.6-24.3,51.3c-6.9,18.6-9.8,31.8-15.2,31.9c-5.6,0.1-9.2-13.7-16.5-33.7c-5.3-14.6-13.5-35.1-25.8-59.4
		c-12,27.5-19.1,50.9-23.5,68.2c-3.8,15.2-6.3,28.5-11.7,29c-5.4,0.5-10.1-12-17.9-30.2c-6.5-15.3-15.7-36-27.9-60.7
		c-3.8,11.2-8.4,27.8-11,48.4c-2.9,23.3-1.5,39.6-5.3,40.2c-3.7,0.6-7.9-14.1-17.2-33.7c-9.6-20-19.9-35.4-27.8-45.9
		c-3.9,22.6-4.3,41-3.9,54c0.5,15.3,2.3,27.3-1.9,28.9c-3.6,1.4-9.2-5.4-19.2-17.5c-7.4-8.9-18.6-22.2-32.7-38.8
		c1.1,12.3,2.4,29.6,3.1,50.4c0.8,22.4,0.3,31.1-2.5,31.8c-3.4,0.8-7.5-10.3-15.7-22.4c-11.5-16.9-25.5-27.3-35.6-33.5
		c15.1,50.3,15.5,62.8,12.6,64.1c-3,1.3-9.1-9.7-27-24.4c-7.4-6.1-13.9-10.4-18.4-13.2c0.1,9,1.1,22.1,5.3,37.3
		c4.5,16.4,10.2,25.9,7.3,28.1c-2.4,1.8-8.1-2.8-31.2-18.1c-6.4-4.2-11.6-7.6-14.9-9.7c22.1,47.8,22.2,60.5,18.2,63.3
		c-3.6,2.4-9.9-3.2-25.5-8.2c-14.5-4.8-27.2-5.8-35.3-6c6.4,6.3,14.7,15.2,23.5,26.6c9.2,12,10.6,15.9,9.3,17.5
		c-2.4,3.2-12.7-5-27.5-3.3c-9.3,1.1-15.9,5.4-18.3,7.2c-9,6.6-15.5,17-23.5,52.4c-2.9,12.8-6.3,30.3-8.7,51.5
		c-6.9,9.3-14.4,21.2-21.3,35.6c-8.4,17.8-13.2,34.2-16,47.2c-2.8-26.8-19-206.3,110.6-335.9c113.3-113.4,262.6-113.1,336-113
		c59.9,0.1,148.9,0.3,225.4,50.2c128.3,83.7,179,279.4,134.8,488.9c0-10.4-0.6-22.4-2.7-35.6c-2.6-16.7-6.7-31-10.8-42.5
		C2308,1178.1,2307.9,1146.2,2306.7,1124.3z M2006.7,1592.5c-64.6,17.3-136.8-4.2-162.5-12.2c-24-7.5-86.5-27.6-134.2-81.4
		c-8.1-9.1-60.4-70-52.8-150.8c1-10.8,2.9-19.7,4.4-25.7c-6.7,3-12.9,6.3-18.5,10c0,0-8.1,5.5-14.8,12.4
		c-7.5,7.7-25.4,41.9-7.7,96.8c0.3,1,0.6,2,1,2.9c-40.5-55.7-60.3-113.8-52-154.7c7.9-39,31.5-64.2,31.5-64.2
		c25.7-27.4,57.9-34.8,68.8-37.3c97.5-22.3,144.1,86.3,248.9,81c89.6-4.5,120.9-87.1,226.4-75.3c22.8,2.5,39.6,4.4,53.7,17.2
		c38.3,34.4,38.2,130.2,1.2,220.2c0-31.7-10.1-59-29.9-74.2c-8.1-6.3-17.1-11.4-25.6-15.6
		C2179.1,1407.4,2137.3,1557.6,2006.7,1592.5z M1548.6,1485.7c42.5-13.1,53.2-12.3,54.8-9c1.7,3.6-7.3,9.5-15.4,24.1
		c-6.9,12.5-9.2,24.5-10.1,32.8c44.1-24.8,56-26.1,58.7-22.6c3.1,3.9-5.7,14-15.8,36.8c-7.4,16.8-11.5,31.3-13.7,40.8
		c37.4-25.8,48.2-28.2,51-25.3c3.1,3.3-4.2,13.7-13.6,34.4c-8.9,19.9-14.2,37.1-17.3,48.7c42.4-29.9,54.9-31.8,58.6-28.1
		c3,2.9,0.4,9.3-5,30.6c-4.4,17.2-7.4,31.3-9.1,40c40.2-44.6,53.2-50.4,57.8-47.4c4.7,3,0.3,15.6-2.5,43c-2.2,22-2.1,40-1.6,51.6
		c9.5-9,23-23.2,36.2-42.7c16.9-24.9,23.9-44.7,28.2-43.4c4.2,1.2-0.1,20.9,0,49.5c0.1,25.1,3.5,45.7,6.6,59.5
		c5.1-7.7,12.7-19.9,20.5-35.7c14.2-28.8,18-47.3,23.7-46.8c5.5,0.5,5.3,17.7,15.8,43.6c6.1,15.2,13.2,26.6,18.2,33.8
		c5.3-7.7,12.8-19.7,19.9-35.6c10-22.5,12.1-37.1,17-37c5.1,0.1,7.1,16,14.7,38.1c7.2,20.7,15.9,36.9,22.5,47.8
		c8.1-13.5,18-32.8,25.4-57.4c5.8-19.2,7.8-34.5,13.1-34.7c5.2-0.3,8.5,14.7,17.2,34.5c9.6,21.5,20.7,37.4,28.3,47.3
		c2-13.9,4.3-34.5,4-59.5c-0.3-29.1-3.9-48.2,0.7-49.5c4.4-1.3,11.4,15.5,26,37.3c14.4,21.5,29.1,37.2,39.9,47.7
		c1.2-11.8,2-29.2-0.5-50.1c-3-25.1-9.3-42.5-5.3-44.4c3.8-1.8,11.2,12.5,29.8,27.9c11.1,9.2,21.7,15,28.8,18.5
		c-0.9-9.1-2.7-22.3-7.1-37.7c-5.3-18.7-11.5-30.3-8.2-32.6c2.9-2.1,10,5.7,22.9,13.4c13.6,8.1,26.7,11.8,36.3,13.7
		c-3.7-10.3-9.7-26-18.2-44.9c-11-24.3-17.3-34.3-14.1-37.7c2.9-3,13.7-1.1,51.4,24.4c-3.8-9.3-9.8-24-18.1-41.9
		c-11.3-24.7-15.5-31.8-12.8-35.1c3.4-4.1,17.4-2.6,69.1,27.6c-1.6-8.7-4.9-21.1-13-33.7c-11.5-18.1-25.1-24.6-23.5-28.6
		c1.4-3.5,13.8-4.1,63.8,9.2c4.7-11.7,9.3-23.4,14-35.1c13.7-34.5,27.4-69,41.1-103.5c-0.4,19.6-2,40.9-5.4,63.5
		c-8.3,55.6-25,102.2-41.8,138.4l-0.3,0.1c-21.1,54.1-77.7,131-149.1,183.4c-79.7,58.5-157.3,71.3-176,74c-34,5-64.2,4.6-88.9,2.4
		c-96.1-13.7-158.7-48.9-192.9-72.4c-94.7-65.3-141.7-158.5-154.5-207c-9.9-26.7-18.6-57.2-24.3-91c-3.8-22.6-5.8-43.9-6.5-63.4
		C1516.3,1408.5,1532.4,1447.1,1548.6,1485.7z M404.9,1972.4c-68.5,74.3-147.3,135-234.3,180.5c-30.4,15.9-61.9,30-94.3,42.2
		c71.6-45.2,153.9-107.5,234.3-192.3c57.5-60.6,102.5-120.4,137.4-174c21.3-6.6,47.2-13.4,77-18.7
		C490.4,1868.9,450,1923.5,404.9,1972.4z M718.6,1723.5c-79.4,11.4-146.1,12.2-191.7,10.9c-45.6-71.6-98.1-146.7-158.5-223.5
		c-101.5-129-205.3-237-302.9-326.5c119.9,78,227.6,171.1,321.2,277.7c62.4,71.1,118.8,148.7,167.4,230.5l6.9,11.6l13.5-0.2
		c73-1.1,146.2-9.5,217.3-25c49.3-10.7,98.4-24.9,145.8-42.3l1.7-0.6c0,0.1,0,0.1,0,0.2c0.9-0.4,1.9-0.8,2.8-1.2l11.7-4.3l0-0.8
		c10.1-4.5,20.2-9,30.4-13.8c29.6-13.7,58.1-27.8,85.3-42.1c9.5-4.2,19.4-9.3,29.6-15.4c-26.2,26.8-58.3,54.2-97.1,78.6
		C906.7,1697,813.5,1709.8,718.6,1723.5z M1379.8,2041.4c-3.4,10.8-7.8,20-12,27.4c-2.5,4.3-8.6,4.2-11.1-0.1
		c-2.8-4.9-5.9-9.9-9.5-15.1c-14.6-21-31-35.9-44.4-45.9c11.8-0.8,24.2-1.3,37.1-1.5c16.1-0.2,31.5,0.1,46,0.8
		C1385.5,2016.2,1384,2028.1,1379.8,2041.4z M2702.2,2314.5c-151.6-175.2-308.2-346.1-469.8-512.7c-34.2,17.4-68.4,34.7-102.6,52.1
		c-60.5,23.4-123.6,38.7-187.5,45.4c-23,2.4-46.3,3.7-69.5,3.9c-8.8,0.1-17.8,0-26.7-0.3c-46.3-2.5-112.9-12.5-185.1-46.1
		c-61.5-28.6-106-64.5-134.8-91.9c4.8,21.7,14.5,50.3,34.5,78.7c23.1,32.6,52.4,54.2,80.6,68.5c-52.6,8.1-177.3,19.1-294.8-52.5
		c-29.3-17.8-53.2-37.8-72.5-57.2c-26.2,16.6-65.8,42.5-112.1,76.4c-90.5,66.2-147.9,119.8-358.1,331
		c-145,145.7-222.2,225.1-353.8,333.8c-15,12.4-27.5,22.5-35.9,29.3c170.4-174.6,336.8-356.3,495-540.8
		c5.8-6.8,45.9-54.1,95.8-113.2c60.7-71.9,89.8-106.6,118.1-140.6c28.3-34,51.3-62,66.3-80.3c-7.7-20.6-15.2-45.4-20.3-73.9
		c-8.8-49.6-7.2-92.6-3.4-124.5c6.1-7.7,11.6-15.5,16.4-23.2c14.4,49.8,44,121.9,106.5,188.3c41.2,43.7,84.2,71.7,117.1,89.2
		c-93.8-78.2-130.7-150-146.2-188.4c-14.9-37-32.5-98.3-33.3-101.2c-5.6-19.8-10.4-38.4-14.4-55.2c3-18.7,5.2-33.5,6.4-42
		c13.6-93.7,15-136.8,33.7-203.1c1.1-3.9,2-7.1,2.5-8.6c-1.6,68.6,4.4,157.4,33.4,255.5c36.9,125.1,106.8,221.7,103.4,215.6
		c-27-90.4-56.9-235.5-33.9-410.1c12-91.3,44.5-187.6,52.1-209.6c0.6-1.7,0.5-1.4,1.6-4.5c6.5-18.8,12.2-35.9,17.5-52.1
		c9.6-29.9,29.5-98.7,40.8-136.7c17.7-59.5,33-110.2,58.4-173.3c11.8-29.2,22.4-52.9,29.7-68.7c5.1,2.2,12.6,4.7,21.9,5.4
		c13,1.1,23.5-1.7,29.6-3.8c-2.9-2.8-8.7-9.4-11.5-19.6c-2.3-8.5-1.4-15.7-0.7-19.6c13.3,4.4,33.2-18.7,44.5-51.7
		c11.3-33.1,9.6-63.6-3.7-68.1c0,0-0.1,0-0.1,0c9.1-9,18.7-14.7,27.7-15.9c-9.6-16.4-20.9-26.6-25.4-30.5
		c28.9-42.7,67.2-91.8,117.2-141.3c36.4-36.1,72.3-65.7,105-89.8c16.8,14.9,63.1,52,133.8,60.9c83.5,10.4,145.6-25.6,163.3-36.7
		c35.4,73,70.9,146,106.3,219.1c-2.5,1.7-5.9,4.4-9.4,8c9,8.3,18.2,17.9,26.8,28.8c-6.6,11.2-7.8,33.5-2.1,58.8
		c7.2,32,23.1,58,37.3,62.5c-3.1,20.5-9.7,39.2-17.9,52.6c4,3.4,8.4,6.9,13.1,10.3c5.5,54.1,9.7,110.5,12.1,169.1
		c0.9,21,1.5,41.6,1.8,62c4.6,9.8,11.8,26.3,19.5,47.1c9.7,26.6,38.3,110.5,40.4,294c0.6,54.6-1.1,113.8-4.4,113.9
		c-3.8,0.1-4.7-80.3-22.9-195.8c-11.1-70.9-16.4-106.3-29.5-141.5c-11.9-32-45.3-121.9-132.1-182.9c-70.1-49.3-141.2-56-195.1-60.3
		c-43.2-3.5-278.2-22.5-430.9,144.8c-77.3,84.7-96.6,176.6-116.8,272.5c-14.6,69.5-49.9,249.8,38.4,438.2
		c19.5,41.6,50,105,115.7,164.7c24.7,22.4,158.5,138.8,348.7,119.6c165.6-16.7,266.5-125.5,296.9-159.2
		c35.1-39,61.3-80.7,80.7-123.5c-7.4,32.5-17.9,66.4-32.4,100.9c-9,21.4-18.9,41.2-29.1,59.5c106.3,126.9,200.2,238.8,214.4,255.7
		c150.6,179.6,178.6,212.9,214.9,259.3c68.1,87.1,159.9,214.2,256.5,382.6C2875.3,2517.9,2789.6,2415.5,2702.2,2314.5z"/>
	<path d="M1837.1,554.8l3.4-0.7l3.4-0.6c2.3-0.4,4.6-0.9,6.9-1.2c2.3-0.4,4.6-0.8,6.9-1.2l6.9-1.1c9.1-1.4,18.3-2.8,27.4-3.9
		c9.1-1.2,18.3-2.1,27.4-2.9l6.9-0.5l3.4-0.3l3.4-0.2l6.8-0.4c2.3-0.1,4.6-0.2,6.8-0.3c18.3-0.9,36.5-1,54.7-0.2
		c18.2,0.8,36.3,2.4,54.4,4.9c18,2.5,36,5.9,53.8,10.1l6.7,1.6l6.7,1.7l6.7,1.8l6.7,1.9c8.9,2.6,17.7,5.3,26.5,8.2
		c8.8,2.9,17.6,6.1,26.4,9.4c8.8,3.3,17.5,6.8,26.4,10.3c-7.2-6.2-14.9-11.8-22.8-17.2c-7.9-5.4-16-10.4-24.4-15
		c-8.4-4.6-16.9-9-25.7-13c-8.8-4-17.7-7.6-26.8-10.8c-36.3-13.1-74.8-20.3-113.4-22c-19.3-0.9-38.7-0.2-57.8,1.7
		c-2.4,0.2-4.8,0.5-7.2,0.7l-7.2,0.9l-3.6,0.5l-3.6,0.5l-7.1,1.1c-2.4,0.4-4.7,0.9-7.1,1.3c-2.4,0.5-4.7,0.8-7.1,1.4l-7,1.5
		c-2.3,0.5-4.7,1.1-7,1.6c-4.7,1.1-9.3,2.4-13.9,3.6c-2.3,0.6-4.6,1.3-6.9,2c-2.3,0.7-4.6,1.4-6.9,2.1c-9.1,2.8-18.1,6.1-27,9.5
		c-4.4,1.8-8.8,3.6-13.2,5.5l-6.5,2.9c-2.2,1-4.3,2-6.5,3c-8.6,4.1-17,8.6-25.1,13.5l27.7-6C1818.8,558.4,1827.9,556.5,1837.1,554.8
		z"/>
	<path d="M1891.3,465.1c13.2-2,26.3-3.7,39.4-4.8c3.3-0.3,6.6-0.6,9.8-0.8c3.3-0.2,6.6-0.5,9.8-0.7l4.9-0.2l2.5-0.1l2.5-0.1l4.9-0.2
		l4.9-0.1c13.1-0.3,26.2-0.1,39.2,0.7c26.1,1.6,51.9,5.4,77.4,11.5c12.8,3,25.4,6.7,38.1,10.8c6.3,2.1,12.6,4.3,18.9,6.6
		c6.3,2.3,12.6,4.8,18.9,7.2c-5.2-4.3-10.7-8.3-16.4-12.1c-5.7-3.8-11.5-7.3-17.5-10.6c-12-6.6-24.5-12.2-37.5-16.8
		c-25.9-9.3-53.2-14.8-80.7-16.4c-13.8-0.9-27.6-0.7-41.3,0.3c-13.7,1-27.3,2.8-40.7,5.6c-13.4,2.7-26.6,6.3-39.5,10.8
		c-3.2,1.1-6.4,2.3-9.6,3.5c-3.2,1.3-6.3,2.5-9.4,3.8c-6.2,2.7-12.4,5.6-18.4,8.8l19.9-3.5C1878.1,467.2,1884.7,466.1,1891.3,465.1z
		"/>
	<path d="M1953.5,387.1c8-0.7,15.9-1.2,23.8-1.5c2-0.1,3.9-0.1,5.9-0.2c2,0,3.9-0.1,5.9-0.1c3.9,0,7.8,0,11.7,0.2
		c7.8,0.3,15.6,0.8,23.3,1.7c15.4,1.7,30.7,4.8,45.7,9.2c7.6,2.1,15,4.7,22.5,7.5c3.7,1.4,7.5,2.9,11.2,4.4l11.3,4.7
		c-2.8-3.1-5.8-5.9-9-8.6c-3.1-2.7-6.4-5.2-9.9-7.6c-6.8-4.7-14.1-8.9-21.7-12.4l-2.9-1.3l-2.9-1.2c-1-0.4-1.9-0.8-2.9-1.2l-3-1.1
		l-3-1.1c-1-0.3-2-0.7-3-1l-3-1l-3-0.8c-8.1-2.2-16.4-3.8-24.8-4.8c-16.7-1.9-33.7-1.2-50,1.8c-8.2,1.5-16.2,3.6-24.1,6.3
		c-3.9,1.4-7.8,2.9-11.5,4.5c-3.8,1.7-7.5,3.5-11.1,5.6c4.1-0.4,8.2-0.8,12.2-1.2C1945.4,387.8,1949.5,387.4,1953.5,387.1z"/>
</g>
<rect x="1559.7" y="1169.8" width="679.8" height="267.5"/>
<rect x="1664.7" y="1417.5" width="497.8" height="190.3"/>
<rect x="2284.1" y="1223.1" width="60.6" height="80.4"/>
<polygon points="2304,1431.9 2352.8,1341.9 2293.3,1351.2 "/>
<path d="M2325.1,1223.1c0,0-1.6-63.4-18-60.8c-16.4,2.6-13.8,60.8-13.8,60.8H2325.1z"/>
<path d="M1506.5,1184.3c0,0,7.9-46.2,39.4-61.8c31.5-15.7-36,77.3-36,77.3L1506.5,1184.3z"/>
<rect x="1500.2" y="1186.5" width="18.2" height="18.2"/>
<rect x="1603" y="1431.9" width="41.6" height="27.7"/>
<g>
	<path class="st0" d="M1492.5,1224.4c-0.3,4.9-0.7,10.3-1.1,16.4c-0.4,6.1-0.7,12.1-0.8,18.1c-0.2,6-0.2,11.5-0.2,16.5
		c0,8.7,0.3,16.4,0.8,23.1c0.5,6.8,1.7,12.5,3.4,17.2c1.7,4.7,4.2,8.3,7.6,10.7c3.3,2.4,7.7,3.7,13.2,3.7c1.4,0,3-0.1,4.7-0.4
		c1.7-0.2,3.4-0.6,5.1-1.2c1.7-0.5,3-1.3,4.1-2.2c2.2-1.9,3.9-4.9,5-9.1c1.1-4.2,1.8-9.7,2.2-16.5c0.4-6.8,0.6-15.1,0.6-24.7
		c0-14.2-0.8-25.3-2.4-33.3c-1.6-8-4.2-13.7-8-17.1c-3.8-3.4-9-5.1-15.6-5.1c-0.6,0-1.3,0-2.1,0c-0.8,0-1.6,0.1-2.4,0.2l-0.9-17.7
		c1.3-0.6,2.7-1.3,4.4-1.9c1.7-0.6,3.1-0.9,4.4-0.9c15.4,0,27.9,2.4,37.4,7.3c9.5,4.9,16.5,12.5,20.9,23c4.4,10.5,6.6,24.1,6.6,40.9
		c0,10.7-0.8,20.2-2.5,28.6c-1.7,8.3-3.8,15.2-6.5,20.5c-2.5,3.3-6.1,6.7-10.7,10.1c-4.6,3.5-9.7,6.7-15.1,9.8
		c-5.4,3.1-10.5,5.5-15.3,7.3c-4.8,1.8-8.5,2.7-11.2,2.7c-11.5,0-21.6-1.4-30.3-4.1s-16-7-21.8-12.6c-5.8-5.7-10.2-12.9-13.1-21.8
		c-2.9-8.9-4.4-19.5-4.4-31.7c0-9.1,0.7-17.3,2-24.7c1.3-7.3,3-13.6,5.1-18.8c2.5-3,6.2-6.3,11-10c4.8-3.7,10-7.3,15.7-10.7
		L1492.5,1224.4z M1553.1,1384.9l-56.6-36.1l26-7.3l56.6,17l-10.4,26.4H1553.1z M1505.7,1203.1h8.7v115.6c0,0.9-0.6,2.6-1.8,5.1
		c-1.2,2.4-2.6,5.2-4.4,8.4h-6.6v-114.5c0-1.3,0.4-3.2,1.2-5.9C1503.7,1209.2,1504.6,1206.3,1505.7,1203.1z"/>
	<path class="st0" d="M1634.3,1350.6c-7.7,0-14.3-1.1-19.8-3.2c-5.5-2.1-9.7-5.7-12.6-10.7c-2.9-5-4.4-12-4.4-21V1260l-9.7-3.5
		v-14.6c6.4-1.1,11.8-2,16.2-2.8c4.3-0.8,8.3-1.5,11.9-2c3.6-0.5,5.8-0.8,6.6-0.8c0.8,0,2.1,0.7,4,2.1s3.7,2.9,5.3,4.5
		c1.7,1.6,2.5,2.8,2.5,3.5v68.9c0,3.1,0.5,5.4,1.5,6.8c1,1.4,2.2,2.3,3.4,2.7c1.3,0.4,2.3,0.6,3.1,0.6c0.5,0,1.5-0.4,3.1-1.1
		c1.6-0.7,3.3-1.5,5.2-2.4c1.9-0.9,3.4-1.5,4.5-2V1260l-9.7-3.5v-14.6c6.4-1.1,11.8-2,16.2-2.8c4.3-0.8,8.3-1.5,11.9-2
		c3.6-0.5,5.9-0.8,6.8-0.8c0.8,0,2.1,0.7,3.9,2.1c1.8,1.4,3.5,2.9,5.2,4.5c1.7,1.6,2.5,2.8,2.5,3.5v80.9l9.9,3.5v14.9
		c-6.6,0.9-12.2,1.8-16.8,2.5c-4.6,0.7-8.7,1.3-12.5,1.8c-3.8,0.5-6.1,0.7-7.1,0.7c-0.5,0-1.5-0.7-2.9-2c-1.5-1.3-2.9-2.8-4.1-4.4
		c-1.3-1.6-1.9-2.7-1.9-3.3v-5.4c-1.9,1.4-4,3-6.3,4.7c-2.3,1.7-4.6,3.4-6.8,5c-2.3,1.6-4.2,2.9-5.9,3.9
		C1635.9,1350.1,1634.8,1350.6,1634.3,1350.6z"/>
	<path class="st0" d="M1730.6,1350.6c-0.6,0-1.9-0.7-3.9-2.1c-2-1.4-3.8-2.9-5.4-4.5c-1.7-1.6-2.5-2.7-2.5-3.3v-81.2l-9.9-3.3v-14.9
		c6.8-1.1,12.5-2,17.2-2.6c4.7-0.6,9-1.2,13-1.8c3.9-0.5,6.3-0.8,7.1-0.8c0.6,0,1.7,0.7,3.2,2.1c1.5,1.4,2.9,2.9,4.2,4.6
		c1.3,1.7,2,2.8,2,3.4v80.9l9.7,3.3v14.6c-6.3,1.1-11.6,2-15.9,2.7c-4.3,0.7-8.3,1.3-11.9,1.9
		C1733.8,1350.4,1731.5,1350.6,1730.6,1350.6z M1716.4,1197c0-0.5,1-1.7,3.1-3.5c2-1.9,4.5-4,7.3-6.4c2.8-2.4,5.4-4.4,7.7-6.1
		c2.3-1.7,3.7-2.6,4.1-2.6c0.9,0,2.6,1,4.8,3c2.3,2,4.6,4.3,7.1,7.1c2.4,2.8,4.5,5.3,6.3,7.7c1.7,2.4,2.5,3.9,2.4,4.7l-1.7,6.6
		c-0.2,0.8-1.3,2.1-3.3,4c-2,1.9-4.4,3.9-7.2,6c-2.8,2.1-5.3,4-7.6,5.5c-2.3,1.6-3.7,2.4-4.4,2.4c-0.9,0-2.5-1-4.7-3
		c-2.2-2-4.5-4.3-7-7c-2.4-2.7-4.4-5.2-6-7.6c-1.6-2.4-2.3-3.9-2.1-4.7L1716.4,1197z"/>
	<path class="st0" d="M1816.5,1350.6c-8.8,0-16.4-2.1-22.7-6.3c-6.3-4.2-11.1-10.1-14.4-17.7c-3.3-7.6-5-16.7-5-27.3
		c0-7.4,0.6-14.4,1.9-21c1.3-6.6,2.7-11.8,4.2-15.6c1.6-1.9,4.3-4.3,8.3-7.2c3.9-2.9,8.2-5.9,12.9-8.8c4.6-3,9-5.5,13.1-7.6
		c4.1-2,7-3.1,8.7-3.1c4.2,0,9.4,0.5,15.5,1.5c6.1,1,11.5,2.4,16.4,4.1l-0.7,36.3h-20.3l-4.2-19.1c-1.6-0.9-3.2-1.8-4.8-2.5
		c-1.7-0.7-3.2-1.1-4.6-1.1c-0.5,0-1,0.1-1.5,0.2c-0.6,0.2-1,0.4-1.3,0.7c-0.9,0.8-1.8,2.9-2.6,6.3c-0.8,3.4-1.4,7.7-1.8,12.9
		c-0.4,5.2-0.6,11.1-0.6,17.7c0,5.8,0.5,11.1,1.7,15.7c1.1,4.6,2.8,8.3,5.1,11c2.3,2.7,5.2,4,8.8,4h26.9v15.1c-1.9,0.6-4.6,1.6-8,3
		c-3.5,1.3-7.2,2.6-11.1,3.9c-3.9,1.3-7.7,2.4-11.2,3.3S1818.7,1350.6,1816.5,1350.6z"/>
	<path class="st0" d="M1908.3,1261.7l-0.2,65.4l9,3.5v14.6c-4.6,0.8-9.2,1.6-14,2.5c-4.8,0.9-9.1,1.6-12.9,2.1
		c-3.8,0.5-6.3,0.8-7.6,0.8c-0.5,0-1.7-0.7-3.5-2c-1.9-1.3-3.7-2.8-5.3-4.5c-1.7-1.7-2.5-2.8-2.5-3.4v-125.6l-9.9-3.5v-14.9
		c2.4-0.3,5.5-0.7,9.3-1.3c3.9-0.5,7.8-1.1,11.8-1.7c4-0.5,7.6-1,10.6-1.4c3.1-0.4,5-0.6,5.8-0.6c0.6,0,1.7,0.7,3.1,2
		c1.4,1.3,2.8,2.8,4.1,4.4c1.3,1.6,2,2.7,2,3.3l-1.9,60.2H1908.3z M1945.1,1350.6c-0.6,0-1.8-0.4-3.4-1.3c-1.7-0.9-3.2-1.8-4.7-3
		c-1.5-1.1-2.5-2-3-2.8l-17-33.5v-12.7c4.1-1.1,7.4-2.7,9.9-4.8c2.5-2.1,4.4-4.5,5.5-7.1c1.2-2.6,1.8-5.2,1.8-7.7
		c0-1.7-0.3-3.2-0.8-4.5c-0.6-1.3-1.3-2.2-2.4-2.9c-1-0.7-2.3-1.1-3.9-1.1c-0.3,0-1.4,0.5-3.2,1.5c-1.8,1-4.2,2.4-7.1,4.2
		c-2.9,1.8-6.4,4-10.5,6.5l-2.8-19.8h4.7c2.5-3,5-6,7.4-9c2.4-3,4.7-5.7,6.8-8.3c2.1-2.5,3.9-4.5,5.4-6c1.5-1.5,2.6-2.2,3.2-2.2
		c13.1,0,22.5,2.8,28.3,8.5c5.8,5.7,8.7,13.8,8.7,24.3c0,4.6-0.9,8.9-2.7,13c-1.8,4.1-4.1,7.8-6.8,11c-2.8,3.2-5.5,6-8.4,8.4
		l16.3,25.7l9.9,3.5v14.6c-1.9,0.5-4.4,1-7.7,1.5c-3.2,0.6-6.6,1.1-10,1.8c-3.5,0.6-6.5,1.1-9.1,1.5
		C1947.1,1350.4,1945.6,1350.6,1945.1,1350.6z"/>
	<path class="st0" d="M1982.6,1219.2v-15.3c3.1-0.3,6.8-0.7,11-1.2c4.2-0.5,8.3-0.9,12.4-1.3c4.1-0.4,7.6-0.7,10.6-0.8
		c3-0.2,5-0.1,5.9,0.2c2,0.6,3.8,1.7,5.3,3.3c1.5,1.6,2.8,3.2,3.9,4.8c1.1,1.7,1.8,3,2.1,3.9V1323l33.5,10.9
		c0.9,0.3,1.9-0.5,2.8-2.6c0.9-2,1.8-4.7,2.7-8c0.9-3.3,1.5-6.8,2-10.4c0.5-3.6,0.7-6.8,0.7-9.4c0-6.4-1-10.7-3.1-12.6
		c-2-2-5.1-3.7-9.2-5.3l-16.8-6.1V1264h18.4c0.8,0,1.5-0.7,2.2-2.2c0.7-1.5,1.3-3.4,1.8-5.8c0.5-2.4,0.9-4.8,1.2-7.4
		c0.3-2.6,0.5-5.1,0.5-7.4c0-6.6-0.4-11.5-1.3-14.6c-0.9-3.1-2.1-5.2-3.8-6.1c-1.7-0.9-3.8-1.3-6.5-0.9l-13,1.7l5.2-20.8h21.5
		c7.9,0,14.5,1,19.8,3.1c5.3,2,9.4,5.8,12.3,11.2c2.8,5.4,4.2,13.4,4.2,24c0,1.9-1.1,4.3-3.3,7.3c-2.2,3-5,6.3-8.5,9.8
		c-3.5,3.5-7.1,7.2-10.9,11v1.4c10.2,2.4,17.7,6.3,22.5,11.8c4.8,5.5,7.2,12.5,7.2,21c0,4.4-0.5,8.6-1.4,12.6c-0.9,4-2.3,7.8-4,11.4
		c-0.6,1.4-2.4,3.2-5.4,5.4c-3,2.2-6.5,4.5-10.5,7c-4,2.4-8.1,4.7-12.2,6.7c-4.1,2-7.7,3.7-10.7,5.1c-3.1,1.3-5.1,2-6,2
		c-6.1,0-11.8-0.1-17-0.2c-5.2-0.2-10.1-0.4-14.9-0.7c-4.7-0.3-9.4-0.7-14-1.3c-4.6-0.6-9.4-1.2-14.3-2c-1.7-0.3-3.4-1.3-5.1-2.8
		c-1.7-1.6-3-3.3-4.1-5.1c-1.1-1.8-1.8-3.2-2.1-4.1v-110.2L1982.6,1219.2z M2046.8,1200.3h8.7v118.5c0,0.9-0.6,2.6-1.8,5.1
		c-1.2,2.4-2.6,5.2-4.4,8.4h-6.6v-117.3c0-1.3,0.4-3.2,1.2-5.9C2044.8,1206.4,2045.7,1203.5,2046.8,1200.3z"/>
	<path class="st0" d="M2146.4,1350.6c-0.6,0-1.9-0.7-3.9-2.1c-2-1.4-3.8-2.9-5.4-4.5c-1.7-1.6-2.5-2.7-2.5-3.3v-81.2l-9.9-3.3v-14.9
		c6.8-1.1,12.5-2,17.2-2.6c4.7-0.6,9-1.2,13-1.8c3.9-0.5,6.3-0.8,7.1-0.8c0.6,0,1.7,0.7,3.2,2.1c1.5,1.4,2.9,2.9,4.2,4.6
		c1.3,1.7,2,2.8,2,3.4v80.9l9.7,3.3v14.6c-6.3,1.1-11.6,2-15.9,2.7c-4.3,0.7-8.3,1.3-11.9,1.9
		C2149.7,1350.4,2147.4,1350.6,2146.4,1350.6z M2132.3,1197c0-0.5,1-1.7,3.1-3.5c2-1.9,4.5-4,7.3-6.4c2.8-2.4,5.4-4.4,7.7-6.1
		c2.3-1.7,3.7-2.6,4.1-2.6c0.9,0,2.6,1,4.8,3c2.3,2,4.6,4.3,7.1,7.1c2.4,2.8,4.5,5.3,6.3,7.7c1.7,2.4,2.5,3.9,2.4,4.7l-1.7,6.6
		c-0.2,0.8-1.3,2.1-3.3,4c-2,1.9-4.4,3.9-7.2,6c-2.8,2.1-5.3,4-7.6,5.5c-2.3,1.6-3.7,2.4-4.4,2.4c-0.9,0-2.5-1-4.7-3
		c-2.2-2-4.5-4.3-7-7c-2.4-2.7-4.4-5.2-6-7.6c-1.6-2.4-2.3-3.9-2.1-4.7L2132.3,1197z"/>
	<path class="st0" d="M2220.8,1350.6c-1.3,0-3-0.8-5.1-2.5c-2.1-1.7-4.3-3.7-6.5-6.1c-2.2-2.4-4.1-4.9-5.5-7.4
		c-1.5-2.5-2.2-4.7-2.2-6.6v-69.9h-17.2v-13.7l17.2-6.4l23.1-27.1c1.7-0.2,3.8,0.2,6.3,1.1c2.4,0.9,4.9,1.7,7.4,2.5v25h23.8v19.1
		h-23.8v59.5c0,3.5,0.5,5.8,1.4,7c0.9,1.2,2.2,1.8,3.8,1.8l21.5,1.4v17.7c-3.8,0.5-8,1-12.6,1.5c-4.6,0.5-9.2,1.1-13.6,1.5
		c-4.4,0.5-8.3,0.9-11.6,1.2C2223.8,1350.5,2221.7,1350.6,2220.8,1350.6z"/>
	<path class="st0" d="M2309.7,1297.1c0,6,0.7,11.1,2,15.2c1.3,4.2,3.2,7.3,5.5,9.4c2.4,2.1,5,3.2,7.8,3.2c0.2,0,1.7-0.1,4.5-0.2
		c2.8-0.2,6.3-0.3,10.5-0.5c4.2-0.2,8.2-0.3,12.2-0.5c3.9-0.2,7-0.3,9.2-0.5v15.1c-2,0.6-5.2,1.7-9.3,3.1c-4.2,1.4-8.5,2.8-13.1,4.1
		c-4.6,1.3-8.7,2.5-12.5,3.5c-3.8,1-6.4,1.5-7.8,1.5c-9.8,0-18.1-2-25.1-6.1c-7-4.1-12.4-9.9-16-17.6c-3.7-7.6-5.5-16.7-5.5-27.3
		c0-7.4,0.6-14.6,1.9-21.5c1.3-6.9,2.7-12.3,4.2-16c1.6-1.9,4.4-4.2,8.4-7.1c4-2.8,8.4-5.7,13.2-8.6c4.8-2.9,9.2-5.3,13.3-7.3
		c4.1-2,7.1-2.9,9-2.9c9.3,0,17.2,1.7,23.7,5c6.5,3.3,11.5,9.2,14.9,17.7c3.4,8.5,4.9,20.6,4.6,36.3l-69.4,7.3v-15.1l34.5-6.6
		c0.2-7.9-0.5-14.1-1.9-18.8c-1.4-4.6-3.5-7.4-6.1-8.1c-0.8-0.3-2-0.5-3.5-0.7c-1.6-0.2-2.7-0.1-3.3,0.2c-1.6,1.1-2.9,5.4-4,13
		C2310.3,1273.9,2309.7,1284.2,2309.7,1297.1z"/>
</g>
</svg>
