<?xml version="1.0" encoding="utf-8"?>
<!-- Generator: Adobe Illustrator 27.7.0, SVG Export Plug-In . SVG Version: 6.00 Build 0)  -->
<svg version="1.1" id="Layer_1" xmlns="http://www.w3.org/2000/svg" xmlns:xlink="http://www.w3.org/1999/xlink" x="0px" y="0px"
	 viewBox="0 0 920 920" style="enable-background:new 0 0 920 920;" xml:space="preserve">
<style type="text/css">
	.st0{fill:#D1D3D4;}
</style>
<g>
	<path class="st0" d="M156.9,225.1c-1,19-2.2,40.3-3.4,63.9c-1.3,23.6-2.2,47.1-2.7,70.4c-0.5,23.3-0.8,44.8-0.8,64.4
		c0,33.7,0.9,63.8,2.7,90.2c1.8,26.4,5.5,48.8,11.1,67.2c5.6,18.4,13.8,32.4,24.5,41.9c10.7,9.5,25,14.3,42.8,14.3
		c4.6,0,9.7-0.5,15.3-1.4c5.6-0.9,11.1-2.4,16.4-4.6c5.4-2.1,9.8-5.1,13.4-8.7c7.1-7.4,12.5-19.2,16.1-35.4
		c3.6-16.2,6-37.7,7.3-64.4c1.3-26.7,1.9-58.7,1.9-96.1c0-55.2-2.6-98.4-7.6-129.7c-5.1-31.3-13.8-53.5-26-66.7
		c-12.2-13.2-29-19.8-50.5-19.8c-2,0-4.3,0-6.9,0c-2.6,0-5.1,0.3-7.6,0.9l-3.1-69c4.1-2.4,8.8-4.9,14.1-7.4
		c5.4-2.4,10.1-3.7,14.1-3.7c49.9,0,90.3,9.5,121.2,28.5c30.8,19,53.4,48.9,67.7,89.7c14.3,40.8,21.4,94,21.4,159.6
		c0,41.7-2.7,78.8-8,111.3c-5.4,32.5-12.4,59.2-21,80c-8.2,12.9-19.8,26.1-34.8,39.6c-15,13.5-31.3,26.2-48.9,38.2
		c-17.6,12-34.1,21.5-49.7,28.5c-15.6,7-27.7,10.6-36.3,10.6c-37.2,0-69.9-5.4-98.2-16.1c-28.3-10.7-51.9-27.1-70.7-49.2
		c-18.9-22.1-33-50.4-42.4-85.1c-9.4-34.6-14.1-75.9-14.1-123.7c0-35.6,2.2-67.6,6.5-96.1c4.3-28.5,9.8-52.9,16.4-73.1
		c8.1-11.6,20-24.7,35.5-39.1c15.5-14.4,32.5-28.4,50.8-41.9L156.9,225.1z M353.4,850.7L169.9,709.9l84.1-28.5l183.5,66.2l-33.6,103
		H353.4z M199.7,142.3H228v450.8c0,3.7-1.9,10.3-5.7,19.8c-3.8,9.5-8.5,20.4-14.1,32.7h-21.4V199.3c0-4.9,1.3-12.6,3.8-23
		C193.1,165.9,196.1,154.5,199.7,142.3z"/>
	<path class="st0" d="M473.4,204.8V145c10.2-1.2,22-2.8,35.5-4.6c13.5-1.8,26.9-3.5,40.1-5.1c13.2-1.5,24.7-2.6,34.4-3.2
		c9.7-0.6,16.1-0.3,19.1,0.9c6.6,2.5,12.4,6.8,17.2,12.9c4.8,6.1,9,12.4,12.6,18.9c3.6,6.4,5.9,11.5,6.9,15.2v429.6l108.6,42.3
		c3.1,1.2,6.1-2.1,9.2-10.1c3.1-8,6-18.4,8.8-31.3c2.8-12.9,5-26.4,6.5-40.5c1.5-14.1,2.3-26.4,2.3-36.8c0-25.1-3.3-41.5-9.9-49.2
		c-6.6-7.7-16.6-14.6-29.8-20.7l-54.3-23.9v-59.8h59.6c2.5,0,5-2.9,7.3-8.7c2.3-5.8,4.2-13.3,5.7-22.5s2.8-18.9,3.8-29
		c1-10.1,1.5-19.8,1.5-29c0-25.8-1.4-44.8-4.2-57c-2.8-12.3-6.9-20.2-12.2-23.9c-5.4-3.7-12.4-4.9-21-3.7l-42,6.4l16.8-81h69.6
		c25.5,0,46.9,4,64.2,12c17.3,8,30.6,22.5,39.8,43.7c9.2,21.2,13.8,52.3,13.8,93.4c0,7.4-3.6,16.9-10.7,28.5
		c-7.1,11.7-16.3,24.4-27.5,38.2c-11.2,13.8-22.9,28.1-35.2,42.8v5.5c33.1,9.2,57.5,24.5,73,46c15.5,21.5,23.3,48.8,23.3,81.9
		c0,17.2-1.5,33.6-4.6,49.2c-3.1,15.6-7.4,30.5-13,44.6c-2,5.5-7.9,12.6-17.6,21.2c-9.7,8.6-21,17.6-34,27.1
		c-13,9.5-26.1,18.3-39.4,26.2c-13.3,8-24.8,14.6-34.8,19.8c-9.9,5.2-16.4,7.8-19.5,7.8c-19.9,0-38.2-0.3-55-0.9
		c-16.8-0.6-32.9-1.5-48.2-2.8c-15.3-1.2-30.5-2.9-45.5-5.1c-15-2.2-30.5-4.7-46.2-7.8c-5.6-1.2-11.1-4.9-16.4-11
		c-5.4-6.1-9.8-12.7-13.4-19.8c-3.6-7-5.9-12.4-6.9-16.1V226L473.4,204.8z M681.3,131.2h28.3v461.8c0,3.7-1.9,10.3-5.7,19.8
		c-3.8,9.5-8.5,20.4-14.1,32.7h-21.4V188.3c0-4.9,1.3-12.6,3.8-23C674.7,154.8,677.7,143.5,681.3,131.2z"/>
</g>
</svg>
